<svg id="b9351b98-bd4a-4950-8b80-5d7aa921fdcf" data-name="Слой 1" xmlns="http://www.w3.org/2000/svg" viewBox="0 0 194.3 131.23"><defs><style>.a47cd651-43c0-43f2-af24-1e54b69fcaca,.a7367213-9359-4912-b0c4-ead980e56b82{fill:#e2000f}.a47cd651-43c0-43f2-af24-1e54b69fcaca{fill-rule:evenodd}</style></defs><path class="a47cd651-43c0-43f2-af24-1e54b69fcaca" d="M28.13 21.64C17 26.61.54 36.6.54 50.69S17 74.76 28.13 79.74c20.78 9.27 46.44 12.72 69 12.72s48.23-3.45 69-12.72c11.16-5 27.59-15 27.59-29s-16.43-24.08-27.59-29c-20.79-9.27-46.44-12.72-69-12.72s-48.24 3.45-69 12.72M0 50.69c0 28 43.5 50.69 97.15 50.69s97.15-22.7 97.15-50.69S150.8 0 97.15 0 0 22.69 0 50.69"/><path class="a47cd651-43c0-43f2-af24-1e54b69fcaca" d="M178.42 63.67c-2.54.16-5.35.11-8.07.11-5.41 0-9.6-.84-12.65-3.5a12.83 12.83 0 0 1-4.36-10.17 12.9 12.9 0 0 1 3.88-9.71c3.07-3 7.6-4 13.5-4 2.59 0 5-.09 7.62 0l-.12 6.58c-1.79-.05-6.12-.07-8-.07a8 8 0 0 0-5.56 1.93 6.39 6.39 0 0 0-2.15 4.95 7.1 7.1 0 0 0 1.39 4.5c1.33 1.73 3.51 2.59 6.52 2.59 2 0 6.14.12 8 .06ZM60.47 36.39h-.86v27.4h8.65V46.62l13.03 17.16h9.48V36.4h-9.42v17.21l-13.1-17.22Zm91.2 27.41h-25.2V36.4h24.91v6.45h-14v4h13.38v6.26H137.4v3.88h14.27Zm-28-20.94H114V63.8h-10.93V42.85h-9.61V36.4h30.18ZM56.34 63.79H45c0-8.07.15-27.39.15-27.39h11.2Zm-14.27-8.73a7.74 7.74 0 0 1-2.29 5.75c-2.31 2.3-6.15 2.95-11.62 2.95L16 63.74l.13-6.05c3.43.15 6.77 0 10.08 0a10 10 0 0 0 3.78-.51c.75-.34 1.12-.81 1.12-1.41s-.5-1.23-1.51-1.57c-.32-.11-1.37-.34-3.14-.7a23.74 23.74 0 0 1-6.73-2.12A7.1 7.1 0 0 1 16 44.8a7.24 7.24 0 0 1 2.81-5.88c2.5-2 6.44-2.44 11.88-2.43l11.42-.07-.11 6.15c-2.63 0-7.48-.08-10.31-.08a14.77 14.77 0 0 0-3.14.23c-1 .27-1.55.8-1.55 1.61s.53 1.17 1.59 1.49c.52.15 1.17.28 2 .43 2.64.48 4.38.87 5.22 1.13a10 10 0 0 1 4.4 2.51 7.18 7.18 0 0 1 1.88 5.17"/><path class="a7367213-9359-4912-b0c4-ead980e56b82" d="M36.18 118.06H39v10.36h6.45V131h-9.3ZM47.05 125.46v-7.4h2.85v7.32c0 2.11 1.06 3.2 2.79 3.2s2.8-1.05 2.8-3.11v-7.41h2.85v7.3c0 3.93-2.2 5.85-5.68 5.85s-5.61-1.94-5.61-5.75ZM61.24 118.06h6a4.68 4.68 0 0 1 3.39 1.14 3.18 3.18 0 0 1-.82 5 3.19 3.19 0 0 1 2.43 3.22c0 2.37-1.93 3.56-4.85 3.56h-6.15Zm5.4 5.23c1.26 0 2-.41 2-1.41 0-.85-.66-1.33-1.86-1.33H64v2.74Zm.76 5.22c1.26 0 2-.45 2-1.44s-.65-1.41-2.11-1.41H64v2.85ZM74.59 118.06h5.92a5.17 5.17 0 0 1 3.78 1.31 4.1 4.1 0 0 1 1.11 3 4 4 0 0 1-2.78 4l3.17 4.63h-3.33l-2.82-4.15h-2.2V131h-2.85Zm5.74 6.29c1.39 0 2.18-.74 2.18-1.87s-.85-1.85-2.24-1.85h-2.83v3.72ZM88.09 118.06h2.85V131h-2.85ZM93.61 124.53a6.83 6.83 0 0 1 11.76-4.59l-1.7 2a4.51 4.51 0 0 0-3.33-1.44 4.08 4.08 0 0 0 0 8.14 4.64 4.64 0 0 0 3.4-1.52l1.82 2a6.9 6.9 0 0 1-12-4.5ZM112.27 118h2.63l5.55 13h-3l-1.19-2.91h-5.47l-1.17 2.91h-2.9Zm3 7.63-1.72-4.21-1.73 4.21ZM122.44 118.06h2.63l6.07 8v-8H134V131h-2.42l-6.28-8.24V131h-2.81ZM140.07 120.68h-3.94v-2.62h10.73v2.62h-3.94V131h-2.85ZM147.87 129.12l1.69-2a5.93 5.93 0 0 0 3.86 1.58c1.17 0 1.87-.47 1.87-1.26s-.44-1.09-2.61-1.65c-2.61-.67-4.29-1.39-4.29-4 0-2.35 1.89-3.9 4.53-3.9a7.46 7.46 0 0 1 4.81 1.65l-1.48 2.14a6.07 6.07 0 0 0-3.36-1.27c-1.1 0-1.67.5-1.67 1.16 0 .85.56 1.13 2.79 1.7 2.63.69 4.11 1.63 4.11 3.93 0 2.57-2 4-4.75 4a8.25 8.25 0 0 1-5.5-2.08Z"/></svg>